<svg width="892" height="892" viewBox="0 0 892 892" fill="none" xmlns="http://www.w3.org/2000/svg">
<g opacity="0.3">
<path d="M148.004 338.941C154.148 302.194 180.381 271.249 208.747 249.429C234.722 229.448 230.185 239.867 240.632 207.2C243.538 198.113 269.853 170.247 278.303 163.236C309.284 137.535 348.098 114.368 386.91 102.652C396.193 99.8288 423.885 97.6511 433.539 98.3773C443.492 99.4039 458.497 101.017 466.981 106.239C476.094 109.977 490.267 119.106 494.9 127.622C502.98 135.302 507.583 154.38 507.801 165.377C508.212 186.107 507.4 207.03 507.419 227.786C507.512 243.803 507.516 259.821 507.434 275.838C507.421 281.655 507.752 289.467 507.533 295.078C507.832 302.973 507.331 315.113 507.168 323.289C515.695 319.034 521.391 314.614 529.326 309.416C535.94 305.083 550.851 299.014 554.555 291.95C555.897 290.6 561.301 276.805 561.752 274.404C563.42 265.542 563.085 255.595 563.301 246.508C563.486 235.921 563.945 225.341 564.677 214.778C552.7 205.185 552.439 203.705 542.774 192.665C540.581 188.978 538.724 179.771 539.118 175.405C541.375 150.438 559.927 132.214 585.869 134.991C598.345 136.326 606.273 139.925 614.556 150.149C625.826 163.971 624.371 191.028 611.584 203.997C604.486 211.74 602.517 211.081 595.593 216.142L595.483 216.721C593.811 225.746 593.235 236.421 591.948 245.714C589.518 263.268 593.619 282.681 587.108 299.577C581.096 315.181 566.073 324.68 551.481 331.311C530.775 341.02 511.82 357.027 507.964 380.711C507.175 395.087 507.419 410.645 507.423 425.079L507.649 488.075C507.817 498.511 507.858 508.949 507.775 519.385C507.757 523.179 507.915 530.096 507.619 533.762C507.862 563.792 507.892 593.819 507.709 623.85C507.757 627.822 507.347 653.911 508.21 655.284C510.66 654.766 525.252 632.773 526.14 629.901C529.452 626.626 535.903 616.552 539.293 612.355C542.554 607.922 546.082 603.721 549.281 599.24C556.762 588.767 555.885 573.17 556.243 560.911C556.868 529.578 556.488 498.236 555.101 466.93C554.526 451.832 550.292 424.972 556.894 411.816C572.86 379.998 613.245 368.074 639.041 347.632C654.542 335.349 651.037 294.225 651.219 274.789C647.454 272.398 641.63 269.709 638.739 266.577C626.681 253.084 626.018 229.643 639.867 217.012C674.101 185.785 719.148 227.983 692.132 265.004C689.16 268.629 683.224 272.006 681.981 276.755C680.482 282.495 681.039 288.794 680.963 294.724C680.727 312.372 682.706 331.395 675.551 348.02C673.692 352.348 669.399 363.344 666.014 366.185C642.753 385.735 612.256 394.921 590.013 416.237C583.017 422.941 584.188 427.602 583.929 436.593C583.982 441.663 583.742 467.336 585.595 469.834C589.672 465.701 606.229 455.281 611.78 451.267C626.935 440.305 642.604 429.731 658.288 419.534C668.583 412.841 678.903 406.166 688.919 399.062C693.448 395.854 698.144 392.922 702.211 389.147C698.932 381.764 697.284 369.663 700.185 362.013C719.143 312.017 791.802 336.604 772.44 389.769C761.751 403.923 756.891 408.862 738.951 410.886C735.451 410.964 724.953 410.916 722.447 412.454C707.983 421.331 694.715 432.37 680.377 441.533C676.761 443.845 673.399 447.398 669.726 449.73C661.755 455.357 654.259 460.149 645.98 465.21C641.86 467.728 636.165 472.379 631.824 475.284C623.281 481.002 614.537 486.769 606.268 492.864C601.187 496.61 595.103 500.718 590.536 505.036C588.765 506.712 588.035 508.323 587.915 510.773C587.502 519.286 588.006 527.806 588.179 536.39C588.601 557.746 588.015 579.744 583.156 600.628C580.976 608.849 574.82 616.686 569.633 623.423C565.232 629.137 560.577 637.234 555.96 642.458C546.324 653.363 539.47 664.768 531.144 676.499C529.919 678.348 525.071 685.902 523.892 687.174C519.508 693.22 514.887 701.177 510.625 706.651C505.593 716.082 508.252 724.918 506.787 733.696C507.056 741.998 505.832 755.045 503.886 763.218C503.018 766.863 500.066 773.327 499.684 776.674C489.866 798.537 480.036 809.49 457.047 817.726C456.561 817.898 456.298 817.971 455.798 818.105C454.826 817.529 454.674 817.385 454.149 816.381C444.74 817.097 436.047 817.793 426.626 817.001C420.631 816.496 415.081 815.315 409.093 815.171C400.803 812.107 392.644 806.724 386.098 800.64C377.766 792.895 364.705 793.49 353.762 790.551C339.849 786.815 327.219 785.49 313.836 779.387C302.053 774.849 291.086 768.889 280.373 762.268C259.339 748.342 245.493 728.245 233.992 706.243C232.157 702.728 232.051 698.622 229.918 694.665C212.207 682.588 194.741 674.386 179.563 658.218C165.525 643.26 154.478 621.742 150.571 601.579C148.738 592.119 149.53 576.748 149.509 567.139C131.526 545.65 127.781 536.999 121.864 510.861C113.654 474.588 116.41 445.007 131.442 411.022C133.239 409.17 147.447 388.58 148.403 385.405C149.81 380.73 147.212 367.724 147.124 361.402C147.019 353.73 147.549 346.666 148.004 338.941ZM241.339 274.383C227.476 279.053 219.527 286.777 210.023 297.4C205.975 301.925 200.79 306.13 196.992 310.829C194.514 313.91 192.369 317.246 190.592 320.779C184.049 334.022 181.281 345.464 182.251 360.155C182.41 362.561 182.68 370.187 182.081 372.066C185.876 373.662 198.596 371.426 203.396 371.253C222.684 370.556 267.588 376.627 260.411 405.125L258.593 405.722C257.002 409.191 253.41 413.656 250.12 415.453C248.33 415.199 246.899 415.25 245.106 414.971C240.974 414.328 236.485 412.282 232.385 412.9C217.529 404.81 203.005 404.966 186.503 408.782C175.06 411.361 164.075 424.646 158.808 434.973C150.191 451.869 152.307 476.405 153.334 494.788C154.398 513.808 156.716 518.973 167.961 533.745C176.867 523.644 188.544 514.848 201.236 510.223C207.886 507.8 212.465 506.846 218.843 503.495C225.249 506.355 233.589 509.171 236.098 516.399C238.972 524.676 235.872 532.37 230.629 538.75C215.253 542.678 202.017 545.569 192.724 560.411C184.591 573.401 184.895 595.12 188.531 609.421C192.603 625.44 213.873 645.296 228.335 653.042C231.102 654.521 233.413 655.822 236.681 655.207C239.913 653.339 245.538 642.189 248.655 637.728C254.189 633.109 258.669 625.805 265.382 620.672C276.413 612.234 292.887 604.739 301.986 595.005C314.547 581.574 304.244 572.167 321.914 560.58C326.062 559.408 329.239 558.961 333.066 561.41C364.195 581.319 327.415 622.242 306.848 633.786C291.438 643.116 273.603 652.778 269.667 671.424C266.083 688.403 266.342 693.508 275.133 708.495C292.076 737.388 321.115 745.902 351.349 753.739C358.047 755.478 369.28 757.101 375.67 754.825C378.372 753.859 383.262 751.953 385.872 751.694C406.523 752.539 408.632 759.963 410.626 778.268C415.742 784.717 419.936 786.373 427.954 787.843C454.02 792.621 471.953 774.541 475.107 749.177C476.249 740.779 476.548 734.498 476.925 726.089C477.615 722.43 477.12 705.801 477.053 701.138C476.996 690.401 477.013 679.664 477.107 668.927C477.005 664.576 477.084 660.019 477.104 655.649C477.643 611.831 477.766 568.008 477.47 524.19C477.371 513.155 478.225 499.504 476.813 488.743C476.24 484.374 469.429 477.377 466.353 473.984C454.407 462.799 442.799 450.719 430.633 439.463C418.247 427.634 403.449 416.164 393.261 402.329C382.915 388.282 383.697 369.482 383.707 353.122L383.687 315.391C383.649 299.141 384.401 274.581 382.403 259.02C380.226 257.589 378.076 256.118 375.954 254.607C367.316 248.379 361.5 241.567 359.55 230.836C355.943 209.672 367.98 194.458 389.465 191.484C420.418 187.2 438.829 221.969 421.303 246.352C416.917 252.453 411.67 252.702 411.645 262.548C411.602 279.403 414.307 295.728 414.778 312.522C415.056 325.678 415.154 338.836 415.073 351.995C415.028 356.243 414.616 375.313 415.39 378.29C418.397 389.867 441.873 408.006 450.503 416.313C460.01 425.465 465.668 431.524 475.848 438.839C476.22 438.064 477.567 322.787 477.564 311.837C477.56 296.645 476.982 281.468 477.06 266.264C477.205 238.051 478.332 209.659 477.634 181.456C477.463 174.549 476.153 167.497 475.443 160.61C473.099 150.023 466.576 146.089 458.103 140.446C444.97 131.699 427.021 128.777 411.618 132.684C400.354 135.54 386.178 139.753 375.069 143.532C370.951 144.933 366.289 148.429 362.23 150.188C333.036 166.133 296.529 188.291 277.584 215.845C269.496 227.607 270.474 240.651 273.03 253.987C275.218 265.403 290.483 277.849 300.112 283.976C306.92 288.308 315.104 286.12 323.758 286.856C332.628 292.969 341.66 298.504 343.736 309.967C345.11 317.749 343.256 325.755 338.601 332.141C327.937 347.017 313.053 349.099 298.175 338.419C286.48 330.024 290.647 322.935 284.464 313.618C280.339 307.399 266.267 299.938 260.832 294.099C254.352 288.271 247.553 278.573 241.339 274.383Z" fill="url(#paint0_linear_115_487)"/>
<path d="M494.898 127.621C502.978 135.301 507.582 154.379 507.8 165.376C508.211 186.106 507.399 207.03 507.418 227.786C507.51 243.803 507.515 259.821 507.433 275.838C507.42 281.654 507.751 289.467 507.532 295.077C505.146 292.184 506.269 172.668 505.572 157.908C505.544 157.319 504.185 149.706 504.189 149.617C504.53 142.392 495.771 132.687 494.898 127.621Z" fill="white"/>
<path d="M505.808 497.487C505.099 480.821 505.867 459.39 505.809 442.318C505.753 425.7 504.998 398.658 506.46 382.374L506.77 384.533C506.999 383.675 507.042 382.108 507.105 381.153L507.969 380.711C507.179 395.086 507.423 410.645 507.427 425.078L507.654 488.075C507.821 498.511 507.863 508.948 507.779 519.385C507.761 523.179 507.919 530.095 507.623 533.762C506.226 531.645 507.66 502.174 505.808 497.487Z" fill="url(#paint1_linear_115_487)"/>
<path d="M505.805 497.486C507.657 502.174 506.223 531.644 507.619 533.761C507.862 563.791 507.892 593.818 507.709 623.849C505.452 612.526 506.157 598.898 505.574 587.33C504.327 562.571 505.872 537.989 505.642 513.225C505.595 508.098 505.521 502.593 505.805 497.486Z" fill="url(#paint2_linear_115_487)"/>
<path d="M614.558 150.15C625.829 163.972 624.374 191.03 611.586 203.998C612.177 198.048 616.854 193.589 618.001 187.418C619.336 180.251 619.336 170.556 617.656 163.454C616.551 158.772 614.933 155.944 614.602 150.863L614.558 150.15Z" fill="white"/>
<path d="M433.539 98.377C443.493 99.4036 458.498 101.017 466.982 106.239L463.482 106L464.727 106.646C459.358 105.83 454.45 103.538 449.029 102.602C445.578 102.007 443.101 103.332 440.089 102.384C441.9 101.927 446.236 101.87 448.465 101.694C448.079 101.616 446.888 101.335 446.514 101.163C442.505 99.3211 437.319 101.095 433.539 98.377Z" fill="white"/>
<path d="M585.595 469.833C585.091 469.987 585.331 469.971 584.721 469.859C584.078 469.739 583.924 469.466 583.583 468.926C581.336 465.335 582.719 441.291 583.929 436.592C583.982 441.662 583.742 467.335 585.595 469.833Z" fill="white"/>
<path d="M305.56 498.639C300.771 495.498 297.032 493.712 293.89 489.03C272.641 457.355 307.368 423.393 339.365 443.668C347.934 449.097 348.822 458.053 356.723 463.611C361.096 466.604 366.416 468.026 371.306 470.03C392.079 478.538 409.369 491.675 421.878 510.455C425.543 515.959 429.142 522.347 432.974 527.594C434.416 531.639 435.098 535.836 436.219 539.948C446.659 578.239 435.727 616.491 415.004 649.365C407.772 661.246 388.665 682.096 377.029 689.755C371.648 691.373 368.536 691.344 363.166 689.899C362.795 689.683 362.124 689.279 361.842 688.972C352.121 678.302 352.507 672.064 362.352 661.99L364.574 660.386C365.183 659.301 374.687 650.82 376.497 648.847C407.326 615.219 427.312 553.542 388.507 518.023C379 509.32 370.512 502.857 358.336 498.53C347.954 494.279 343.318 495.963 333.404 499.59C325.49 502.485 313.405 501.557 305.56 498.639Z" fill="url(#paint3_linear_115_487)"/>
<path d="M475.443 160.611C478.883 165.075 479.677 166.395 480.066 172.217C480.59 180.058 479.635 187.949 479.86 195.842C481.01 236.003 479.905 276.452 480.008 316.571L480.42 399.588C480.408 411.727 480.575 424.144 479.963 436.261C479.89 437.696 479.398 439.72 478.122 440.538C476.567 440.172 477.087 440.342 475.848 438.84C476.22 438.066 477.567 322.789 477.564 311.838C477.56 296.647 476.982 281.469 477.061 266.266C477.206 238.052 478.333 209.661 477.634 181.458C477.463 174.551 476.153 167.498 475.443 160.611Z" fill="url(#paint4_linear_115_487)"/>
<path d="M466.355 473.985L466.968 472.709C469.446 472.833 471.902 476.365 473.692 478.101C482.026 486.186 480.328 500.146 480.321 510.932L480.276 543.217L480.275 597.94C480.252 614.915 480.822 631.9 477.898 648.668C477.485 651.036 477.736 653.153 477.106 655.65C477.645 611.832 477.768 568.01 477.473 524.191C477.373 513.157 478.227 499.505 476.815 488.745C476.242 484.375 469.431 477.378 466.355 473.985Z" fill="url(#paint5_linear_115_487)"/>
<path d="M182.079 372.067C185.874 373.663 198.595 371.427 203.394 371.254C222.682 370.557 267.587 376.628 260.409 405.126L258.591 405.724C260.194 402.076 259.837 399.942 259.832 396.001C255.577 391.031 251.78 386.403 245.578 383.714C236.6 379.821 227.677 377.636 217.965 376.831C209.337 376.116 189.09 377.997 182.101 374.15C181.518 372.892 181.6 373.559 182.079 372.067Z" fill="url(#paint6_linear_115_487)"/>
<path d="M258.595 405.724L260.413 405.126C259.608 408.381 256.505 414.439 254.304 416.659C245.462 420.91 239.265 418.874 232.387 412.901C236.487 412.283 240.976 414.329 245.109 414.972C246.901 415.251 248.332 415.2 250.122 415.455C253.412 413.658 257.005 409.193 258.595 405.724Z" fill="url(#paint7_linear_115_487)"/>
<path d="M705.679 506.886C706.289 491.539 709.881 481.722 723.504 473.758C730.803 469.414 739.533 468.158 747.764 470.269C755.817 472.405 766.592 480.015 770.429 487.277C779.366 504.18 772.662 523.503 756.052 532.401C746.751 537.382 733.43 536.095 723.893 533.323C721.459 533.923 717.651 534.953 716.023 536.931C711.192 539.426 693.785 549.755 690.231 552.852C682.976 556.713 662.409 568.497 660.814 576.185C657.487 592.243 657.933 613.016 657.765 629.607C657.712 634.793 657.371 642.601 657.957 647.292C662.317 653.237 664.522 653.324 670.375 657.938C681.953 666.832 681.982 682.366 680.483 695.485C679.542 703.749 672.44 714.371 665.549 718.842C648.176 730.117 621.174 726.482 609.284 709.449C608.852 708.825 608.425 708.196 608.007 707.562C600.554 691.74 598.653 672.157 611.853 658.515C617.078 653.117 622.394 650.529 628.074 646.01C628.569 641.194 628.147 630.317 628.185 625.035C628.305 608.267 627.978 592.353 629.117 575.58C629.189 574.903 629.28 574.23 629.385 573.558C632.958 550.388 657.323 537.12 675.369 526.372C685.05 520.603 696.666 513.489 705.679 506.886Z" fill="url(#paint8_linear_115_487)"/>
<path d="M409.094 815.172C415.081 815.316 420.631 816.497 426.626 817.001C436.048 817.794 444.741 817.097 454.15 816.382C454.674 817.386 454.827 817.53 455.798 818.106C442.266 821.587 422.097 820.507 409.094 815.172Z" fill="url(#paint9_linear_115_487)"/>
</g>
<defs>
<linearGradient id="paint0_linear_115_487" x1="446.506" y1="98.2363" x2="446.506" y2="818.105" gradientUnits="userSpaceOnUse">
<stop stop-color="white"/>
<stop offset="1" stop-color="#999999"/>
</linearGradient>
<linearGradient id="paint1_linear_115_487" x1="506.737" y1="380.711" x2="506.737" y2="533.762" gradientUnits="userSpaceOnUse">
<stop stop-color="white"/>
<stop offset="1" stop-color="#999999"/>
</linearGradient>
<linearGradient id="paint2_linear_115_487" x1="506.455" y1="497.486" x2="506.455" y2="623.849" gradientUnits="userSpaceOnUse">
<stop stop-color="white"/>
<stop offset="1" stop-color="#999999"/>
</linearGradient>
<linearGradient id="paint3_linear_115_487" x1="363.798" y1="437.547" x2="363.798" y2="690.976" gradientUnits="userSpaceOnUse">
<stop stop-color="white"/>
<stop offset="1" stop-color="#999999"/>
</linearGradient>
<linearGradient id="paint4_linear_115_487" x1="477.938" y1="160.611" x2="477.938" y2="440.538" gradientUnits="userSpaceOnUse">
<stop stop-color="white"/>
<stop offset="1" stop-color="#999999"/>
</linearGradient>
<linearGradient id="paint5_linear_115_487" x1="473.412" y1="472.709" x2="473.412" y2="655.65" gradientUnits="userSpaceOnUse">
<stop stop-color="white"/>
<stop offset="1" stop-color="#999999"/>
</linearGradient>
<linearGradient id="paint6_linear_115_487" x1="221.435" y1="371.202" x2="221.435" y2="405.724" gradientUnits="userSpaceOnUse">
<stop stop-color="white"/>
<stop offset="1" stop-color="#999999"/>
</linearGradient>
<linearGradient id="paint7_linear_115_487" x1="246.4" y1="405.126" x2="246.4" y2="418.915" gradientUnits="userSpaceOnUse">
<stop stop-color="white"/>
<stop offset="1" stop-color="#999999"/>
</linearGradient>
<linearGradient id="paint8_linear_115_487" x1="688.286" y1="469.268" x2="688.286" y2="725.321" gradientUnits="userSpaceOnUse">
<stop stop-color="white"/>
<stop offset="1" stop-color="#999999"/>
</linearGradient>
<linearGradient id="paint9_linear_115_487" x1="409.094" y1="817.644" x2="455.798" y2="817.644" gradientUnits="userSpaceOnUse">
<stop stop-color="white"/>
<stop offset="1" stop-color="#999999"/>
</linearGradient>
</defs>
</svg>
