<svg width="801" height="868" viewBox="0 0 801 868" fill="none" xmlns="http://www.w3.org/2000/svg">
<g opacity="0.1">
<path d="M67.0835 314.093C73.9532 273.009 103.281 238.413 134.995 214.018C164.035 191.68 158.962 203.328 170.643 166.806C173.891 156.646 203.311 125.492 212.758 117.655C247.395 88.9201 290.79 63.0191 334.182 49.9211C344.56 46.7647 375.52 44.3301 386.313 45.142C397.441 46.2898 414.217 48.0933 423.702 53.9316C433.889 58.11 449.735 68.3164 454.915 77.8376C463.948 86.4237 469.095 107.753 469.339 120.047C469.798 143.224 468.89 166.617 468.911 189.822C469.015 207.729 469.02 225.637 468.928 243.544C468.914 250.047 469.284 258.781 469.039 265.054C469.373 273.881 468.812 287.453 468.631 296.594C478.164 291.837 484.532 286.896 493.403 281.084C500.798 276.24 517.468 269.455 521.609 261.557C523.11 260.048 529.151 244.624 529.656 241.941C531.521 232.033 531.146 220.912 531.388 210.753C531.594 198.916 532.107 187.088 532.926 175.279C519.536 164.553 519.244 162.899 508.438 150.556C505.987 146.434 503.91 136.141 504.351 131.259C506.874 103.346 527.615 82.9716 556.619 86.0758C570.566 87.5683 579.43 91.5926 588.691 103.023C601.291 118.475 599.664 148.726 585.367 163.225C577.433 171.882 575.232 171.146 567.49 176.803L567.366 177.45C565.498 187.541 564.854 199.475 563.415 209.865C560.699 229.491 565.283 251.195 558.004 270.084C551.282 287.529 534.486 298.149 518.173 305.563C495.023 316.418 473.832 334.314 469.521 360.792C468.638 376.864 468.911 394.259 468.915 410.395L469.169 480.826C469.356 492.493 469.402 504.162 469.309 515.831C469.289 520.072 469.465 527.805 469.134 531.904C469.406 565.478 469.44 599.048 469.235 632.623C469.289 637.063 468.831 666.231 469.796 667.766C472.534 667.186 488.849 642.598 489.841 639.387C493.544 635.726 500.757 624.463 504.547 619.771C508.192 614.815 512.137 610.118 515.713 605.109C524.077 593.4 523.097 575.962 523.496 562.256C524.196 527.227 523.77 492.186 522.22 457.186C521.577 440.305 516.843 410.276 524.224 395.567C542.075 359.995 587.225 346.664 616.065 323.81C633.395 310.078 629.476 264.101 629.68 242.371C625.471 239.698 618.959 236.692 615.727 233.19C602.247 218.105 601.506 191.897 616.989 177.776C655.262 142.865 705.625 190.042 675.421 231.431C672.098 235.484 665.462 239.26 664.072 244.569C662.397 250.987 663.019 258.029 662.933 264.658C662.67 284.389 664.882 305.656 656.883 324.243C654.805 329.082 650.006 341.375 646.221 344.552C620.215 366.409 586.119 376.679 561.252 400.51C553.43 408.006 554.74 413.216 554.45 423.268C554.509 428.937 554.24 457.639 556.312 460.432C560.87 455.811 579.381 444.161 585.588 439.674C602.531 427.418 620.049 415.597 637.583 404.197C649.093 396.714 660.63 389.251 671.829 381.309C676.892 377.722 682.142 374.444 686.69 370.224C683.023 361.97 681.182 348.44 684.424 339.888C705.62 283.992 786.852 311.48 765.206 370.919C753.255 386.743 747.822 392.266 727.765 394.528C723.851 394.615 712.116 394.561 709.313 396.281C693.143 406.205 678.309 418.547 662.279 428.792C658.236 431.377 654.478 435.349 650.371 437.956C641.459 444.246 633.079 449.604 623.823 455.262C619.217 458.077 612.85 463.278 607.996 466.525C598.445 472.918 588.669 479.366 579.424 486.18C573.744 490.367 566.942 494.96 561.837 499.788C559.856 501.662 559.04 503.463 558.906 506.202C558.444 515.719 559.008 525.244 559.201 534.841C559.673 558.718 559.018 583.312 553.585 606.66C551.148 615.851 544.265 624.613 538.467 632.145C533.546 638.534 528.342 647.585 523.18 653.426C512.407 665.619 504.745 678.369 495.436 691.485C494.066 693.552 488.646 701.996 487.328 703.419C482.427 710.178 477.26 719.074 472.495 725.194C466.87 735.738 469.843 745.617 468.204 755.43C468.505 764.713 467.137 779.299 464.961 788.437C463.991 792.512 460.69 799.738 460.264 803.48C449.287 827.923 438.297 840.169 412.595 849.376C412.052 849.569 411.757 849.65 411.198 849.8C410.112 849.156 409.942 848.995 409.355 847.873C398.836 848.673 389.117 849.451 378.584 848.565C371.882 848.002 365.677 846.681 358.982 846.52C349.714 843.095 340.593 837.077 333.274 830.275C323.959 821.615 309.356 822.281 297.122 818.995C281.567 814.818 267.447 813.337 252.484 806.513C239.311 801.44 227.05 794.777 215.073 787.374C191.557 771.805 176.076 749.337 163.219 724.738C161.167 720.808 161.049 716.218 158.664 711.794C138.863 698.292 119.336 689.122 102.367 671.046C86.672 654.323 74.322 630.266 69.9536 607.723C67.9049 597.147 68.7902 579.962 68.766 569.219C48.6617 545.195 44.4739 535.523 37.8591 506.3C28.6799 465.747 31.7614 432.675 48.5673 394.68C50.577 392.61 66.4607 369.59 67.5296 366.04C69.1026 360.813 66.1982 346.273 66.1005 339.204C65.9824 330.627 66.5745 322.73 67.0835 314.093ZM171.433 241.918C155.934 247.139 147.047 255.773 136.421 267.65C131.895 272.709 126.098 277.411 121.853 282.664C119.082 286.109 116.684 289.838 114.697 293.788C107.383 308.593 104.288 321.386 105.372 337.81C105.55 340.501 105.852 349.027 105.181 351.127C109.424 352.911 123.646 350.412 129.012 350.218C150.576 349.439 200.78 356.226 192.755 388.087L190.723 388.755C188.944 392.633 184.928 397.625 181.25 399.634C179.249 399.349 177.649 399.406 175.645 399.094C171.025 398.376 166.005 396.089 161.422 396.78C144.813 387.735 128.575 387.909 110.126 392.176C97.332 395.059 85.0507 409.912 79.1629 421.457C69.5289 440.348 71.8949 467.779 73.0432 488.33C74.2324 509.595 76.8243 515.369 89.3961 531.885C99.3533 520.591 112.408 510.758 126.597 505.587C134.032 502.878 139.151 501.811 146.282 498.065C153.444 501.263 162.768 504.41 165.574 512.492C168.787 521.745 165.321 530.347 159.459 537.48C142.268 541.872 127.471 545.104 117.081 561.698C107.988 576.22 108.329 600.502 112.393 616.49C116.945 634.4 140.726 656.599 156.894 665.259C159.988 666.912 162.572 668.367 166.225 667.68C169.839 665.592 176.127 653.126 179.612 648.138C185.8 642.974 190.807 634.808 198.313 629.069C210.645 619.636 229.064 611.256 239.237 600.374C253.279 585.358 241.761 574.84 261.516 561.886C266.153 560.576 269.705 560.077 273.984 562.815C308.786 585.073 267.666 630.825 244.672 643.731C227.444 654.162 207.504 664.964 203.104 685.81C199.097 704.793 199.386 710.5 209.215 727.256C228.157 759.559 260.623 769.078 294.424 777.839C301.913 779.783 314.471 781.597 321.615 779.052C324.636 777.973 330.104 775.842 333.021 775.552C356.109 776.497 358.467 784.797 360.697 805.262C366.416 812.472 371.104 814.324 380.069 815.967C409.211 821.309 429.26 801.096 432.786 772.739C434.063 763.349 434.397 756.327 434.819 746.927C435.59 742.836 435.037 724.244 434.962 719.031C434.898 707.027 434.918 695.023 435.023 683.018C434.908 678.154 434.996 673.06 435.018 668.174C435.622 619.185 435.759 570.191 435.429 521.202C435.317 508.865 436.272 493.603 434.694 481.573C434.053 476.688 426.438 468.865 423 465.071C409.643 452.567 396.666 439.062 383.065 426.477C369.216 413.253 352.672 400.429 341.282 384.962C329.715 369.257 330.59 348.238 330.601 329.947L330.578 287.764C330.536 269.597 331.376 242.138 329.143 224.742C326.709 223.142 324.305 221.497 321.932 219.808C312.275 212.844 305.773 205.229 303.593 193.232C299.561 169.57 313.018 152.561 337.038 149.236C371.644 144.446 392.227 183.318 372.633 210.578C367.73 217.4 361.864 217.677 361.835 228.685C361.787 247.53 364.812 265.781 365.338 284.557C365.649 299.265 365.758 313.976 365.667 328.687C365.618 333.437 365.157 354.757 366.022 358.086C369.384 371.028 395.63 391.308 405.278 400.595C415.907 410.827 422.234 417.602 433.615 425.779C434.03 424.913 435.536 296.033 435.533 283.79C435.528 266.807 434.883 249.838 434.97 232.84C435.132 201.297 436.392 169.555 435.611 138.025C435.42 130.303 433.955 122.418 433.162 114.718C430.541 102.882 423.249 98.4843 413.776 92.1751C399.093 82.3961 379.026 79.1293 361.805 83.4967C349.212 86.69 333.363 91.4004 320.944 95.6255C316.339 97.1915 311.128 101.1 306.589 103.066C273.95 120.893 233.135 145.666 211.954 176.471C202.913 189.621 204.006 204.205 206.863 219.114C209.31 231.878 226.376 245.792 237.141 252.642C244.753 257.486 253.903 255.039 263.577 255.861C273.495 262.696 283.592 268.884 285.913 281.7C287.449 290.401 285.376 299.351 280.171 306.491C268.249 323.122 251.609 325.45 234.976 313.509C221.901 304.123 226.559 296.198 219.647 285.782C215.034 278.83 199.303 270.488 193.226 263.96C185.981 257.444 178.38 246.602 171.433 241.918Z" fill="url(#paint0_linear_115_540)"/>
<path d="M454.914 77.8369C463.947 86.423 469.094 107.752 469.338 120.047C469.798 143.223 468.89 166.616 468.911 189.821C469.014 207.728 469.02 225.636 468.928 243.544C468.913 250.047 469.283 258.781 469.038 265.053C466.371 261.819 467.626 128.2 466.847 111.698C466.816 111.039 465.297 102.528 465.301 102.428C465.682 94.3514 455.89 83.5003 454.914 77.8369Z" fill="#3D234B"/>
<path d="M467.11 491.349C466.317 472.717 467.175 448.756 467.111 429.67C467.048 411.091 466.204 380.858 467.839 362.653L468.184 365.066C468.44 364.107 468.489 362.355 468.56 361.287L469.525 360.793C468.642 376.865 468.914 394.259 468.919 410.396L469.173 480.826C469.359 492.494 469.406 504.163 469.313 515.831C469.293 520.073 469.469 527.805 469.138 531.904C467.577 529.538 469.18 496.589 467.11 491.349Z" fill="#3D234B"/>
<path d="M467.107 491.349C469.177 496.589 467.574 529.537 469.135 531.904C469.407 565.478 469.441 599.048 469.236 632.623C466.712 619.964 467.501 604.728 466.849 591.795C465.455 564.114 467.182 536.63 466.925 508.945C466.872 503.213 466.79 497.058 467.107 491.349Z" fill="#3D234B"/>
<path d="M588.694 103.024C601.294 118.477 599.668 148.728 585.371 163.227C586.031 156.574 591.26 151.589 592.544 144.69C594.036 136.677 594.036 125.838 592.157 117.898C590.922 112.664 589.113 109.502 588.743 103.821L588.694 103.024Z" fill="#3D234B"/>
<path d="M386.314 45.1426C397.443 46.2903 414.218 48.0938 423.704 53.9322L419.791 53.6653L421.183 54.3869C415.18 53.4752 409.693 50.9127 403.632 49.8667C399.774 49.2009 397.004 50.6825 393.638 49.6225C395.662 49.1116 400.51 49.0481 403.001 48.8509C402.571 48.7637 401.239 48.4499 400.821 48.2579C396.339 46.1982 390.54 48.1815 386.314 45.1426Z" fill="#3D234B"/>
<path d="M470.383 723.477C474.468 718.135 477.95 709.492 483.5 705.863C484.686 705.09 485.993 704.338 487.328 703.42C482.427 710.179 477.261 719.075 472.495 725.195L470.383 723.477Z" fill="#3D234B"/>
<path d="M556.312 460.431C555.748 460.603 556.017 460.586 555.335 460.46C554.616 460.327 554.444 460.021 554.063 459.418C551.55 455.403 553.096 428.521 554.449 423.268C554.508 428.936 554.24 457.638 556.312 460.431Z" fill="#3D234B"/>
<path d="M468.206 755.431C468.159 755.168 468.119 754.905 468.085 754.636C467.387 749.418 467.563 733.784 468.085 727.879C468.214 726.419 469.473 724.652 470.384 723.477L472.497 725.195C466.872 735.739 469.844 745.617 468.206 755.431Z" fill="#3D234B"/>
<path d="M243.233 492.636C237.878 489.123 233.698 487.127 230.186 481.892C206.429 446.479 245.254 408.51 281.027 431.177C290.607 437.248 291.6 447.26 300.433 453.474C305.322 456.819 311.27 458.41 316.737 460.65C339.961 470.162 359.292 484.85 373.276 505.846C377.374 511.999 381.398 519.141 385.682 525.007C387.294 529.529 388.056 534.222 389.31 538.818C400.982 581.628 388.76 624.394 365.592 661.148C357.507 674.43 336.144 697.741 323.135 706.304C317.119 708.113 313.64 708.081 307.637 706.465C307.221 706.223 306.471 705.772 306.156 705.428C295.288 693.499 295.72 686.526 306.727 675.262L309.211 673.469C309.891 672.256 320.517 662.775 322.54 660.568C357.008 622.972 379.352 554.017 335.968 514.306C325.339 504.577 315.849 497.351 302.237 492.514C290.63 487.761 285.447 489.644 274.362 493.699C265.515 496.935 252.004 495.897 243.233 492.636Z" fill="url(#paint1_linear_115_540)"/>
<path d="M309.213 673.467C303.644 685.02 301.734 694.678 307.639 706.462C307.224 706.221 306.474 705.77 306.158 705.426C295.29 693.497 295.722 686.523 306.729 675.26L309.213 673.467Z" fill="#3D234B"/>
<path d="M433.164 114.72C437.009 119.71 437.897 121.186 438.332 127.695C438.918 136.462 437.85 145.284 438.102 154.108C439.388 199.008 438.152 244.23 438.267 289.084L438.728 381.896C438.714 395.468 438.902 409.35 438.216 422.897C438.135 424.502 437.586 426.765 436.159 427.678C434.42 427.269 435.001 427.46 433.617 425.781C434.032 424.915 435.538 296.035 435.535 283.792C435.531 266.808 434.885 249.84 434.972 232.842C435.134 201.299 436.394 169.557 435.613 138.027C435.422 130.304 433.958 122.419 433.164 114.72Z" fill="#3D234B"/>
<path d="M423.002 465.073L423.686 463.646C426.457 463.786 429.203 467.734 431.205 469.675C440.521 478.714 438.624 494.321 438.615 506.38L438.565 542.475L438.565 603.656C438.538 622.634 439.176 641.623 435.907 660.37C435.444 663.017 435.726 665.384 435.021 668.176C435.624 619.187 435.761 570.193 435.431 521.204C435.32 508.867 436.274 493.605 434.696 481.574C434.055 476.69 426.441 468.867 423.002 465.073Z" fill="#3D234B"/>
<path d="M105.181 351.128C109.424 352.912 123.646 350.413 129.011 350.219C150.575 349.44 200.779 356.228 192.755 388.088L190.723 388.756C192.515 384.678 192.115 382.292 192.109 377.886C187.353 372.33 183.107 367.156 176.174 364.15C166.136 359.797 156.16 357.354 145.302 356.454C135.656 355.654 113.02 357.758 105.206 353.456C104.554 352.051 104.646 352.797 105.181 351.128Z" fill="#3D234B"/>
<path d="M435.028 683.02C436.68 685.978 434.42 703.028 436.365 710.045C439.04 719.693 439.532 763.49 437.194 771.64L436.835 771.946C436.35 766.717 439.875 754.739 436.911 750.165L435.946 749.8C434.667 751.62 436.377 767.194 432.791 772.74C434.068 763.35 434.402 756.328 434.824 746.928C435.595 742.837 435.042 724.245 434.967 719.032C434.902 707.028 434.922 695.024 435.028 683.02Z" fill="#3D234B"/>
<path d="M190.727 388.756L192.759 388.088C191.859 391.727 188.39 398.5 185.929 400.982C176.044 405.735 169.116 403.458 161.426 396.781C166.01 396.09 171.029 398.377 175.649 399.096C177.653 399.408 179.253 399.351 181.254 399.635C184.932 397.626 188.949 392.635 190.727 388.756Z" fill="#3D234B"/>
<path d="M690.568 501.857C691.25 484.699 695.265 473.723 710.496 464.82C718.657 459.963 728.417 458.559 737.619 460.92C746.622 463.307 758.669 471.815 762.959 479.934C772.95 498.833 765.455 520.435 746.885 530.383C736.486 535.952 721.593 534.513 710.931 531.414C708.209 532.085 703.952 533.236 702.132 535.448C696.731 538.237 677.27 549.785 673.297 553.247C665.185 557.564 642.191 570.738 640.409 579.334C636.688 597.286 637.188 620.511 637 639.06C636.941 644.858 636.559 653.587 637.214 658.832C642.089 665.479 644.553 665.575 651.098 670.735C664.042 680.677 664.074 698.045 662.399 712.712C661.346 721.951 653.406 733.827 645.702 738.825C626.279 751.43 596.091 747.366 582.798 728.324C582.315 727.626 581.837 726.923 581.37 726.214C573.038 708.524 570.912 686.631 585.67 671.379C591.511 665.344 597.454 662.451 603.805 657.399C604.358 652.014 603.886 639.854 603.929 633.949C604.063 615.201 603.698 597.41 604.97 578.657C605.051 577.9 605.153 577.149 605.271 576.397C609.265 550.493 636.506 535.659 656.681 523.643C667.504 517.193 680.491 509.24 690.568 501.857Z" fill="url(#paint2_linear_115_540)"/>
<path d="M358.984 846.521C365.679 846.683 371.884 848.003 378.586 848.567C389.119 849.453 398.838 848.674 409.357 847.874C409.943 848.996 410.114 849.157 411.2 849.802C396.071 853.694 373.522 852.486 358.984 846.521Z" fill="#3D234B"/>
</g>
<defs>
<linearGradient id="paint0_linear_115_540" x1="400.81" y1="44.9844" x2="400.81" y2="849.8" gradientUnits="userSpaceOnUse">
<stop stop-color="#3D234B"/>
<stop offset="1" stop-color="#9053B1"/>
</linearGradient>
<linearGradient id="paint1_linear_115_540" x1="308.343" y1="424.334" x2="308.343" y2="707.669" gradientUnits="userSpaceOnUse">
<stop stop-color="#3D234B"/>
<stop offset="1" stop-color="#9053B1"/>
</linearGradient>
<linearGradient id="paint2_linear_115_540" x1="671.122" y1="459.8" x2="671.122" y2="746.068" gradientUnits="userSpaceOnUse">
<stop stop-color="#3D234B"/>
<stop offset="1" stop-color="#9053B1"/>
</linearGradient>
</defs>
</svg>
