<svg width="791" height="259" viewBox="0 0 791 259" fill="none" xmlns="http://www.w3.org/2000/svg">
<path d="M19.9574 93.4419C22.0011 81.2196 30.726 70.9273 40.1609 63.6698C48.8002 57.0244 47.291 60.4897 50.766 49.6244C51.7324 46.602 60.4846 37.3337 63.2952 35.002C73.5995 26.4536 86.5095 18.7481 99.4185 14.8515C102.506 13.9125 111.716 13.1882 114.927 13.4297C118.238 13.7712 123.228 14.3077 126.05 16.0446C129.081 17.2877 133.795 20.324 135.336 23.1566C138.023 25.7109 139.555 32.0562 139.627 35.7139C139.764 42.6088 139.494 49.5681 139.5 56.4716C139.531 61.7989 139.532 67.1265 139.505 72.4538C139.501 74.3885 139.611 76.9869 139.538 78.853C139.638 81.479 139.471 85.5166 139.417 88.2361C142.253 86.8207 144.147 85.3508 146.786 83.6219C148.986 82.1808 153.946 80.1622 155.177 77.8126C155.624 77.3636 157.421 72.7752 157.571 71.9768C158.126 69.0292 158.015 65.7207 158.087 62.6984C158.148 59.1772 158.301 55.6583 158.544 52.1451C154.561 48.9541 154.474 48.462 151.259 44.7902C150.53 43.5639 149.912 40.5017 150.043 39.0494C150.794 30.7451 156.964 24.6839 165.593 25.6074C169.742 26.0514 172.379 27.2486 175.134 30.6491C178.883 35.2462 178.399 44.2457 174.145 48.5591C171.785 51.1344 171.13 50.9154 168.827 52.5985L168.79 52.7911C168.234 55.793 168.043 59.3434 167.615 62.4344C166.807 68.273 168.17 74.7298 166.005 80.3494C164.005 85.5393 159.008 88.6986 154.155 90.9041C147.268 94.1334 140.964 99.4575 139.681 107.335C139.419 112.116 139.5 117.291 139.501 122.092L139.577 143.045C139.632 146.515 139.646 149.987 139.618 153.458C139.612 154.72 139.665 157.021 139.566 158.24C139.647 168.228 139.657 178.215 139.596 188.204C139.612 189.525 139.476 198.202 139.763 198.659C140.578 198.486 145.431 191.171 145.727 190.216C146.828 189.127 148.974 185.776 150.101 184.38C151.186 182.906 152.359 181.508 153.423 180.018C155.912 176.535 155.62 171.347 155.739 167.27C155.947 156.849 155.82 146.424 155.359 136.012C155.168 130.99 153.76 122.056 155.955 117.68C161.266 107.098 174.698 103.132 183.278 96.3325C188.434 92.2473 187.268 78.5693 187.328 72.1049C186.076 71.3096 184.139 70.4152 183.177 69.3736C179.167 64.8857 178.946 57.0891 183.553 52.8879C194.939 42.5019 209.922 56.5371 200.936 68.8502C199.947 70.0559 197.973 71.1791 197.56 72.7587C197.061 74.668 197.247 76.7629 197.221 78.7351C197.143 84.605 197.801 90.9319 195.421 96.4616C194.803 97.9011 193.375 101.558 192.249 102.503C184.513 109.006 174.369 112.061 166.971 119.151C164.644 121.381 165.034 122.931 164.947 125.921C164.965 127.608 164.885 136.146 165.502 136.977C166.858 135.603 172.365 132.137 174.211 130.802C179.252 127.156 184.463 123.639 189.679 120.248C193.104 118.021 196.536 115.801 199.868 113.438C201.374 112.371 202.936 111.396 204.289 110.141C203.198 107.685 202.65 103.66 203.615 101.116C209.92 84.4868 234.087 92.6645 227.647 110.347C224.092 115.055 222.475 116.698 216.508 117.371C215.344 117.397 211.853 117.381 211.019 117.893C206.208 120.845 201.795 124.517 197.026 127.564C195.824 128.333 194.706 129.515 193.484 130.291C190.833 132.162 188.339 133.756 185.586 135.439C184.215 136.277 182.321 137.824 180.877 138.79C178.036 140.692 175.128 142.61 172.377 144.637C170.688 145.883 168.664 147.249 167.145 148.686C166.556 149.243 166.313 149.779 166.273 150.594C166.136 153.425 166.303 156.259 166.361 159.114C166.501 166.217 166.307 173.534 164.69 180.48C163.965 183.214 161.918 185.821 160.193 188.062C158.729 189.962 157.18 192.655 155.645 194.393C152.44 198.02 150.16 201.813 147.391 205.715C146.984 206.33 145.371 208.842 144.979 209.265C143.521 211.276 141.984 213.923 140.566 215.743C138.893 218.88 139.777 221.819 139.29 224.739C139.379 227.5 138.972 231.84 138.325 234.558C138.036 235.77 137.054 237.92 136.927 239.033C133.662 246.305 130.392 249.948 122.746 252.687C122.585 252.745 122.497 252.769 122.331 252.813C122.007 252.622 121.957 252.574 121.782 252.24C118.653 252.478 115.761 252.71 112.628 252.446C110.634 252.278 108.788 251.885 106.797 251.837C104.039 250.819 101.326 249.028 99.1482 247.004C96.3772 244.428 92.0329 244.626 88.3931 243.649C83.7657 242.406 79.565 241.965 75.1136 239.935C71.1947 238.426 67.5469 236.444 63.9837 234.242C56.9878 229.61 52.3824 222.926 48.5574 215.608C47.947 214.439 47.9117 213.073 47.2022 211.757C41.3116 207.74 35.5023 205.012 30.454 199.635C25.7849 194.659 22.1108 187.503 20.8112 180.796C20.2017 177.65 20.4651 172.537 20.4579 169.341C14.4769 162.194 13.2311 159.317 11.2632 150.623C8.53241 138.559 9.44912 128.72 14.4489 117.416C15.0467 116.8 19.7721 109.952 20.0901 108.896C20.558 107.341 19.694 103.015 19.6649 100.912C19.6298 98.3608 19.8059 96.0114 19.9574 93.4419ZM51.0011 71.9699C46.3901 73.5231 43.7463 76.092 40.5851 79.6254C39.2387 81.1302 37.5141 82.529 36.251 84.0918C35.4267 85.1167 34.7133 86.2261 34.1224 87.4011C31.9462 91.8057 31.0256 95.6116 31.3481 100.498C31.401 101.298 31.4909 103.835 31.2914 104.459C32.5536 104.99 36.7846 104.247 38.3808 104.189C44.7961 103.957 59.7316 105.976 57.3443 115.455L56.7398 115.654C56.2107 116.807 55.0157 118.292 53.9215 118.89C53.3262 118.805 52.8503 118.822 52.254 118.73C50.8797 118.516 49.3863 117.835 48.0227 118.041C43.0816 115.35 38.251 115.402 32.7624 116.671C28.9562 117.529 25.3026 121.948 23.551 125.382C20.6849 131.002 21.3887 139.163 21.7304 145.277C22.0841 151.603 22.8552 153.321 26.5953 158.234C29.5575 154.875 33.4412 151.949 37.6626 150.411C39.8745 149.605 41.3974 149.288 43.5187 148.173C45.6495 149.124 48.4233 150.061 49.2579 152.465C50.2138 155.218 49.1827 157.777 47.4388 159.899C42.3245 161.205 37.9225 162.167 34.8315 167.104C32.1264 171.424 32.2276 178.648 33.4367 183.404C34.7911 188.732 41.8657 195.337 46.6758 197.913C47.5961 198.405 48.3648 198.838 49.4517 198.633C50.5267 198.012 52.3975 194.303 53.4343 192.819C55.2751 191.283 56.7649 188.854 58.9977 187.146C62.6665 184.34 68.146 181.847 71.1725 178.61C75.3502 174.142 71.9235 171.014 77.8005 167.16C79.1801 166.77 80.2368 166.621 81.5096 167.436C91.8633 174.058 79.6302 187.669 72.7896 191.508C67.6642 194.611 61.7322 197.825 60.423 204.027C59.2309 209.674 59.3171 211.372 62.241 216.357C67.8763 225.967 77.5347 228.799 87.5906 231.405C89.8185 231.983 93.5545 232.523 95.6798 231.766C96.5786 231.445 98.2051 230.811 99.0732 230.725C105.942 231.006 106.643 233.475 107.306 239.563C109.008 241.708 110.403 242.259 113.07 242.748C121.739 244.337 127.704 238.324 128.753 229.888C129.133 227.094 129.232 225.005 129.358 222.209C129.587 220.992 129.422 215.461 129.4 213.91C129.381 210.339 129.387 206.767 129.418 203.196C129.384 201.749 129.41 200.233 129.417 198.78C129.597 184.206 129.637 169.63 129.539 155.056C129.506 151.386 129.79 146.846 129.32 143.267C129.13 141.813 126.864 139.486 125.841 138.357C121.868 134.638 118.007 130.62 113.961 126.876C109.841 122.942 104.919 119.127 101.531 114.525C98.0896 109.853 98.3498 103.6 98.353 98.1584L98.3463 85.6091C98.3337 80.2045 98.5838 72.0355 97.9192 66.8601C97.1952 66.3842 96.4802 65.8948 95.7742 65.3923C92.9013 63.3207 90.9668 61.0551 90.3182 57.4859C89.1187 50.4468 93.1222 45.3865 100.268 44.3974C110.563 42.9723 116.687 54.5368 110.858 62.6465C109.399 64.6759 107.654 64.7584 107.645 68.0332C107.631 73.6396 108.531 79.0691 108.687 84.655C108.78 89.0305 108.812 93.407 108.785 97.7836C108.771 99.1967 108.633 105.539 108.891 106.53C109.891 110.38 117.699 116.413 120.569 119.176C123.731 122.22 125.614 124.235 128.999 126.668C129.123 126.411 129.571 88.0692 129.57 84.4269C129.569 79.3743 129.377 74.3262 129.403 69.2694C129.451 59.8855 129.826 50.4423 129.593 41.0621C129.536 38.7647 129.101 36.419 128.865 34.1284C128.085 30.6071 125.916 29.2989 123.097 27.4219C118.729 24.5127 112.759 23.5408 107.636 24.8401C103.89 25.7901 99.1749 27.1915 95.48 28.4484C94.1103 28.9143 92.5598 30.0772 91.2096 30.6621C81.4997 35.9654 69.3573 43.3353 63.0561 52.4998C60.3661 56.4119 60.6915 60.7505 61.5415 65.1858C62.2693 68.9831 67.3463 73.1224 70.5491 75.1604C72.8136 76.6013 75.5356 75.8735 78.4137 76.1182C81.3641 78.1515 84.368 79.9924 85.0585 83.805C85.5156 86.3935 84.8989 89.0562 83.3505 91.1803C79.8037 96.128 74.8533 96.8206 69.9048 93.2683C66.0151 90.4759 67.4008 88.1182 65.3446 85.0194C63.9723 82.9511 59.2922 80.4695 57.4844 78.5273C55.329 76.5889 53.0676 73.3634 51.0011 71.9699Z" fill="white"/>
<path d="M135.336 23.1562C138.023 25.7106 139.554 32.0559 139.627 35.7136C139.764 42.6085 139.494 49.5677 139.5 56.4713C139.531 61.7986 139.532 67.1262 139.505 72.4535C139.501 74.3881 139.611 76.9866 139.538 78.8527C138.744 77.8905 139.118 38.139 138.886 33.2298C138.877 33.0338 138.425 30.5017 138.426 30.472C138.539 28.0693 135.626 24.8411 135.336 23.1562Z" fill="white"/>
<path d="M138.963 146.175C138.727 140.632 138.982 133.504 138.963 127.826C138.945 122.298 138.693 113.304 139.18 107.888L139.283 108.606C139.359 108.321 139.373 107.8 139.394 107.482L139.681 107.335C139.419 112.116 139.5 117.291 139.501 122.092L139.577 143.045C139.632 146.516 139.646 149.987 139.618 153.458C139.612 154.72 139.665 157.021 139.566 158.24C139.102 157.536 139.579 147.734 138.963 146.175Z" fill="white"/>
<path d="M138.963 146.175C139.579 147.734 139.102 157.536 139.567 158.24C139.647 168.228 139.657 178.215 139.597 188.204C138.846 184.437 139.08 179.905 138.886 176.057C138.472 167.822 138.985 159.646 138.909 151.41C138.893 149.704 138.869 147.873 138.963 146.175Z" fill="white"/>
<path d="M175.134 30.6494C178.883 35.2465 178.399 44.246 174.146 48.5594C174.342 46.5804 175.898 45.0971 176.279 43.0448C176.723 40.6609 176.723 37.4365 176.164 35.0742C175.797 33.5171 175.259 32.5764 175.149 30.8863L175.134 30.6494Z" fill="white"/>
<path d="M114.928 13.4297C118.238 13.7711 123.229 14.3077 126.051 16.0446L124.887 15.9652L125.301 16.1799C123.515 15.9086 121.883 15.1463 120.08 14.8351C118.932 14.637 118.108 15.0778 117.106 14.7625C117.709 14.6105 119.151 14.5916 119.892 14.5329C119.764 14.507 119.368 14.4136 119.243 14.3565C117.91 13.7437 116.185 14.3338 114.928 13.4297Z" fill="white"/>
<path d="M139.938 215.233C141.153 213.643 142.189 211.072 143.84 209.992C144.193 209.762 144.582 209.539 144.979 209.266C143.521 211.276 141.984 213.923 140.566 215.744L139.938 215.233Z" fill="white"/>
<path d="M165.501 136.977C165.334 137.028 165.414 137.023 165.211 136.986C164.997 136.946 164.946 136.855 164.832 136.675C164.085 135.481 164.545 127.484 164.947 125.921C164.965 127.607 164.885 136.146 165.501 136.977Z" fill="white"/>
<path d="M139.29 224.739C139.276 224.66 139.264 224.582 139.254 224.502C139.046 222.95 139.099 218.299 139.254 216.542C139.293 216.108 139.667 215.582 139.938 215.232L140.567 215.744C138.893 218.88 139.777 221.819 139.29 224.739Z" fill="white"/>
<path d="M72.362 146.558C70.769 145.513 69.5253 144.919 68.4804 143.362C61.4129 132.826 72.9632 121.531 83.6055 128.274C86.4554 130.08 86.7509 133.059 89.3787 134.907C90.8332 135.903 92.6027 136.376 94.2293 137.042C101.138 139.872 106.889 144.242 111.05 150.488C112.269 152.318 113.466 154.443 114.74 156.188C115.22 157.533 115.446 158.93 115.819 160.297C119.292 173.033 115.656 185.756 108.763 196.69C106.358 200.641 100.003 207.576 96.1326 210.123C94.3428 210.662 93.3077 210.652 91.5219 210.171C91.3983 210.099 91.1752 209.965 91.0813 209.863C87.8482 206.314 87.9766 204.24 91.2512 200.889L91.9902 200.355C92.1926 199.994 95.3538 197.174 95.9556 196.517C106.21 185.332 112.857 164.819 99.9504 153.005C96.7884 150.11 93.9651 147.961 89.9154 146.522C86.4623 145.108 84.9204 145.668 81.6228 146.874C78.9907 147.837 74.9713 147.528 72.362 146.558Z" fill="white"/>
<path d="M91.9903 200.354C90.3334 203.792 89.7651 206.665 91.522 210.171C91.3984 210.099 91.1752 209.965 91.0813 209.862C87.8482 206.313 87.9766 204.239 91.2513 200.888L91.9903 200.354Z" fill="white"/>
<path d="M128.865 34.1289C130.009 35.6136 130.273 36.0525 130.403 37.9889C130.577 40.5971 130.259 43.2217 130.334 45.8467C130.717 59.2045 130.349 72.658 130.383 86.0017L130.521 113.613C130.516 117.651 130.572 121.781 130.368 125.811C130.344 126.288 130.181 126.961 129.756 127.233C129.239 127.112 129.412 127.168 129 126.669C129.123 126.411 129.571 88.0697 129.571 84.4274C129.569 79.3748 129.377 74.3267 129.403 69.27C129.451 59.886 129.826 50.4429 129.594 41.0626C129.537 38.7653 129.101 36.4195 128.865 34.1289Z" fill="white"/>
<path d="M125.842 138.358L126.045 137.934C126.87 137.975 127.687 139.15 128.282 139.727C131.054 142.416 130.489 147.059 130.487 150.647L130.472 161.385L130.472 179.586C130.464 185.232 130.654 190.881 129.681 196.458C129.543 197.246 129.627 197.95 129.417 198.781C129.597 184.206 129.638 169.631 129.539 155.057C129.506 151.387 129.79 146.846 129.321 143.267C129.13 141.814 126.865 139.487 125.842 138.358Z" fill="white"/>
<path d="M31.2919 104.46C32.5541 104.99 36.7851 104.247 38.3813 104.189C44.7966 103.957 59.7321 105.977 57.3448 115.455L56.7403 115.654C57.2734 114.441 57.1544 113.731 57.1528 112.42C55.7378 110.767 54.4747 109.228 52.412 108.333C49.426 107.039 46.4581 106.312 43.2277 106.044C40.3581 105.806 33.6239 106.432 31.2992 105.152C31.1055 104.734 31.1326 104.956 31.2919 104.46Z" fill="white"/>
<path d="M129.418 203.196C129.91 204.076 129.238 209.149 129.816 211.236C130.612 214.106 130.758 227.136 130.063 229.561L129.956 229.652C129.812 228.096 130.861 224.533 129.979 223.172L129.691 223.063C129.311 223.605 129.82 228.238 128.753 229.888C129.133 227.094 129.232 225.005 129.358 222.209C129.587 220.992 129.422 215.461 129.4 213.91C129.381 210.339 129.387 206.768 129.418 203.196Z" fill="white"/>
<path d="M56.7396 115.654L57.3441 115.455C57.0762 116.538 56.0442 118.553 55.3122 119.291C52.3713 120.705 50.3102 120.028 48.0225 118.041C49.3861 117.836 50.8794 118.516 52.2538 118.73C52.85 118.823 53.326 118.806 53.9212 118.89C55.0154 118.293 56.2104 116.808 56.7396 115.654Z" fill="white"/>
<path d="M205.442 149.301C205.645 144.197 206.839 140.931 211.371 138.283C213.798 136.838 216.702 136.42 219.439 137.122C222.118 137.833 225.702 140.364 226.978 142.779C229.95 148.401 227.721 154.828 222.196 157.788C219.102 159.444 214.672 159.016 211.5 158.094C210.69 158.294 209.424 158.636 208.882 159.294C207.275 160.124 201.486 163.559 200.304 164.589C197.891 165.874 191.05 169.793 190.52 172.35C189.413 177.691 189.561 184.6 189.505 190.118C189.488 191.843 189.375 194.44 189.569 196.001C191.02 197.978 191.753 198.007 193.7 199.542C197.55 202.499 197.56 207.666 197.062 212.03C196.749 214.778 194.386 218.311 192.094 219.798C186.316 223.548 177.335 222.339 173.381 216.674C173.237 216.467 173.095 216.257 172.956 216.047C170.477 210.784 169.845 204.271 174.235 199.733C175.973 197.938 177.741 197.077 179.63 195.574C179.795 193.972 179.654 190.355 179.667 188.598C179.707 183.021 179.598 177.728 179.977 172.149C180.001 171.924 180.031 171.7 180.066 171.476C181.255 163.77 189.359 159.357 195.361 155.782C198.581 153.863 202.444 151.497 205.442 149.301Z" fill="white"/>
<path d="M106.797 251.838C108.788 251.886 110.634 252.279 112.628 252.446C115.762 252.71 118.653 252.478 121.783 252.24C121.957 252.574 122.008 252.622 122.331 252.814C117.83 253.972 111.122 253.612 106.797 251.838Z" fill="white"/>
<path d="M302.437 152.55H275.821V77.467H302.657C310.209 77.467 316.711 78.9701 322.161 81.9763C327.611 84.9581 331.803 89.2475 334.736 94.8445C337.693 100.442 339.172 107.138 339.172 114.935C339.172 122.756 337.693 129.477 334.736 135.099C331.803 140.72 327.587 145.034 322.088 148.04C316.613 151.047 310.063 152.55 302.437 152.55ZM291.695 138.948H301.777C306.47 138.948 310.417 138.117 313.619 136.455C316.845 134.769 319.265 132.166 320.878 128.646C322.515 125.103 323.334 120.532 323.334 114.935C323.334 109.387 322.515 104.853 320.878 101.334C319.265 97.8141 316.857 95.2234 313.655 93.5614C310.454 91.8994 306.506 91.0684 301.814 91.0684H291.695V138.948ZM346.801 152.55V77.467H397.394V90.5551H362.676V108.446H394.791V121.534H362.676V139.462H397.541V152.55H346.801ZM419.45 77.467L437.598 134.512H438.294L456.478 77.467H474.076L448.193 152.55H427.736L401.816 77.467H419.45ZM481.944 152.55H464.933L490.853 77.467H511.31L537.193 152.55H520.182L501.375 94.6246H500.788L481.944 152.55ZM480.881 123.037H521.062V135.429H480.881V123.037ZM557.975 77.467V152.55H542.1V77.467H557.975ZM633.153 103.753H617.096C616.802 101.676 616.204 99.8305 615.299 98.2174C614.395 96.5798 613.234 95.1867 611.816 94.038C610.399 92.8893 608.761 92.0094 606.904 91.3984C605.071 90.7873 603.079 90.4818 600.928 90.4818C597.042 90.4818 593.657 91.4472 590.773 93.3781C587.889 95.2845 585.652 98.0708 584.064 101.737C582.475 105.379 581.681 109.802 581.681 115.008C581.681 120.361 582.475 124.858 584.064 128.5C585.677 132.142 587.925 134.891 590.809 136.749C593.693 138.606 597.03 139.535 600.818 139.535C602.944 139.535 604.912 139.254 606.72 138.692C608.553 138.13 610.179 137.311 611.596 136.235C613.014 135.136 614.187 133.804 615.116 132.239C616.069 130.675 616.729 128.891 617.096 126.887L633.153 126.96C632.738 130.406 631.699 133.73 630.037 136.932C628.4 140.109 626.188 142.957 623.401 145.474C620.64 147.967 617.34 149.947 613.503 151.413C609.69 152.855 605.376 153.576 600.561 153.576C593.864 153.576 587.876 152.061 582.597 149.03C577.342 146 573.187 141.612 570.132 135.869C567.102 130.125 565.586 123.172 565.586 115.008C565.586 106.821 567.126 99.8549 570.206 94.1113C573.285 88.3677 577.464 83.9927 582.744 80.9865C588.023 77.9558 593.962 76.4404 600.561 76.4404C604.912 76.4404 608.945 77.0515 612.66 78.2735C616.399 79.4956 619.711 81.2798 622.595 83.6261C625.479 85.948 627.825 88.7954 629.634 92.1682C631.467 95.5411 632.64 99.4028 633.153 103.753ZM709.404 115.008C709.404 123.196 707.852 130.162 704.748 135.905C701.669 141.649 697.465 146.036 692.137 149.067C686.833 152.073 680.869 153.576 674.246 153.576C667.573 153.576 661.585 152.061 656.282 149.03C650.978 146 646.786 141.612 643.707 135.869C640.627 130.125 639.087 123.172 639.087 115.008C639.087 106.821 640.627 99.8549 643.707 94.1113C646.786 88.3677 650.978 83.9927 656.282 80.9865C661.585 77.9558 667.573 76.4404 674.246 76.4404C680.869 76.4404 686.833 77.9558 692.137 80.9865C697.465 83.9927 701.669 88.3677 704.748 94.1113C707.852 99.8549 709.404 106.821 709.404 115.008ZM693.31 115.008C693.31 109.705 692.515 105.232 690.927 101.59C689.363 97.9486 687.151 95.1867 684.291 93.3048C681.431 91.4228 678.083 90.4818 674.246 90.4818C670.409 90.4818 667.06 91.4228 664.201 93.3048C661.341 95.1867 659.117 97.9486 657.528 101.59C655.964 105.232 655.182 109.705 655.182 115.008C655.182 120.312 655.964 124.785 657.528 128.427C659.117 132.068 661.341 134.83 664.201 136.712C667.06 138.594 670.409 139.535 674.246 139.535C678.083 139.535 681.431 138.594 684.291 136.712C687.151 134.83 689.363 132.068 690.927 128.427C692.515 124.785 693.31 120.312 693.31 115.008ZM779.835 77.467V152.55H766.124L733.458 105.293H732.908V152.55H717.034V77.467H730.965L763.374 124.687H764.034V77.467H779.835Z" fill="white"/>
<path d="M283.264 197.55H275.448V173.404H283.512C285.878 173.404 287.909 173.888 289.607 174.854C291.305 175.813 292.606 177.193 293.51 178.993C294.421 180.785 294.877 182.934 294.877 185.442C294.877 187.957 294.417 190.118 293.498 191.926C292.586 193.734 291.266 195.125 289.536 196.1C287.807 197.066 285.717 197.55 283.264 197.55ZM279.091 194.367H283.064C284.903 194.367 286.432 194.021 287.65 193.329C288.868 192.63 289.78 191.62 290.385 190.299C290.99 188.971 291.293 187.352 291.293 185.442C291.293 183.547 290.99 181.94 290.385 180.62C289.788 179.299 288.896 178.297 287.709 177.613C286.522 176.929 285.048 176.588 283.288 176.588H279.091V194.367ZM298.079 197.55V173.404H313.217V176.54H301.722V183.897H312.428V187.022H301.722V194.414H313.359V197.55H298.079ZM318.866 173.404L325.586 193.07H325.857L332.578 173.404H336.515L327.826 197.55H323.617L314.928 173.404H318.866ZM338.674 197.55V173.404H353.812V176.54H342.317V183.897H353.022V187.022H342.317V194.414H353.954V197.55H338.674ZM357.35 197.55V173.404H360.994V194.414H371.934V197.55H357.35ZM394.796 185.477C394.796 188.055 394.324 190.272 393.381 192.127C392.438 193.974 391.145 195.396 389.502 196.394C387.868 197.385 386.009 197.88 383.926 197.88C381.835 197.88 379.968 197.385 378.326 196.394C376.691 195.396 375.402 193.97 374.459 192.115C373.516 190.26 373.044 188.047 373.044 185.477C373.044 182.899 373.516 180.686 374.459 178.839C375.402 176.985 376.691 175.562 378.326 174.572C379.968 173.573 381.835 173.074 383.926 173.074C386.009 173.074 387.868 173.573 389.502 174.572C391.145 175.562 392.438 176.985 393.381 178.839C394.324 180.686 394.796 182.899 394.796 185.477ZM391.188 185.477C391.188 183.512 390.87 181.858 390.233 180.514C389.605 179.162 388.74 178.14 387.64 177.448C386.547 176.749 385.309 176.399 383.926 176.399C382.535 176.399 381.293 176.749 380.2 177.448C379.108 178.14 378.243 179.162 377.607 180.514C376.978 181.858 376.663 183.512 376.663 185.477C376.663 187.442 376.978 189.1 377.607 190.452C378.243 191.796 379.108 192.818 380.2 193.518C381.293 194.209 382.535 194.555 383.926 194.555C385.309 194.555 386.547 194.209 387.64 193.518C388.74 192.818 389.605 191.796 390.233 190.452C390.87 189.1 391.188 187.442 391.188 185.477ZM398.01 197.55V173.404H406.617C408.495 173.404 410.051 173.746 411.285 174.43C412.519 175.114 413.443 176.049 414.056 177.236C414.669 178.415 414.976 179.743 414.976 181.221C414.976 182.706 414.665 184.043 414.044 185.229C413.431 186.408 412.504 187.344 411.262 188.035C410.028 188.719 408.475 189.061 406.605 189.061H400.686V185.972H406.275C407.462 185.972 408.424 185.768 409.163 185.359C409.902 184.943 410.444 184.377 410.79 183.661C411.136 182.946 411.309 182.133 411.309 181.221C411.309 180.309 411.136 179.5 410.79 178.792C410.444 178.085 409.898 177.531 409.151 177.13C408.413 176.729 407.438 176.529 406.228 176.529H401.653V197.55H398.01ZM417.918 173.404H422.34L430.027 192.174H430.309L437.996 173.404H442.418V197.55H438.951V180.077H438.727L431.606 197.514H428.73L421.609 180.066H421.385V197.55H417.918V173.404ZM446.386 197.55V173.404H454.993C456.871 173.404 458.427 173.746 459.661 174.43C460.895 175.114 461.819 176.049 462.432 177.236C463.045 178.415 463.352 179.743 463.352 181.221C463.352 182.706 463.041 184.043 462.42 185.229C461.807 186.408 460.88 187.344 459.638 188.035C458.404 188.719 456.852 189.061 454.981 189.061H449.062V185.972H454.651C455.838 185.972 456.8 185.768 457.539 185.359C458.278 184.943 458.82 184.377 459.166 183.661C459.512 182.946 459.685 182.133 459.685 181.221C459.685 180.309 459.512 179.5 459.166 178.792C458.82 178.085 458.274 177.531 457.527 177.13C456.789 176.729 455.814 176.529 454.604 176.529H450.029V197.55H446.386ZM466.294 197.55V173.404H481.433V176.54H469.937V183.897H480.643V187.022H469.937V194.414H481.574V197.55H466.294ZM504.459 173.404V197.55H501.111L488.838 179.842H488.614V197.55H484.971V173.404H488.343L500.628 191.136H500.852V173.404H504.459ZM507.255 176.54V173.404H525.942V176.54H518.408V197.55H514.777V176.54H507.255ZM529.648 197.774C529.003 197.774 528.449 197.546 527.985 197.09C527.522 196.626 527.29 196.068 527.29 195.416C527.29 194.771 527.522 194.221 527.985 193.765C528.449 193.302 529.003 193.07 529.648 193.07C530.292 193.07 530.846 193.302 531.31 193.765C531.774 194.221 532.006 194.771 532.006 195.416C532.006 195.848 531.896 196.245 531.676 196.607C531.463 196.96 531.18 197.243 530.827 197.455C530.473 197.668 530.08 197.774 529.648 197.774ZM544.791 197.55H540.924L549.613 173.404H553.822L562.511 197.55H558.644L551.818 177.79H551.629L544.791 197.55ZM545.44 188.094H557.984V191.16H545.44V188.094ZM568.313 173.404V197.55H564.67V173.404H568.313ZM574.33 197.774C573.686 197.774 573.132 197.546 572.668 197.09C572.204 196.626 571.972 196.068 571.972 195.416C571.972 194.771 572.204 194.221 572.668 193.765C573.132 193.302 573.686 193.07 574.33 193.07C574.975 193.07 575.529 193.302 575.993 193.765C576.456 194.221 576.688 194.771 576.688 195.416C576.688 195.848 576.578 196.245 576.358 196.607C576.146 196.96 575.863 197.243 575.509 197.455C575.156 197.668 574.763 197.774 574.33 197.774ZM607.489 181.256H603.81C603.669 180.47 603.405 179.779 603.02 179.181C602.635 178.584 602.164 178.077 601.606 177.66C601.048 177.244 600.423 176.929 599.731 176.717C599.047 176.505 598.32 176.399 597.55 176.399C596.159 176.399 594.913 176.749 593.813 177.448C592.72 178.148 591.855 179.173 591.219 180.525C590.59 181.877 590.276 183.528 590.276 185.477C590.276 187.442 590.59 189.1 591.219 190.452C591.855 191.804 592.724 192.826 593.824 193.518C594.925 194.209 596.163 194.555 597.538 194.555C598.3 194.555 599.024 194.453 599.707 194.249C600.399 194.036 601.024 193.726 601.582 193.317C602.14 192.909 602.612 192.409 602.997 191.82C603.39 191.223 603.661 190.539 603.81 189.769L607.489 189.78C607.292 190.967 606.911 192.06 606.345 193.058C605.787 194.048 605.068 194.905 604.188 195.628C603.315 196.343 602.317 196.897 601.193 197.29C600.069 197.683 598.843 197.88 597.515 197.88C595.424 197.88 593.561 197.385 591.926 196.394C590.291 195.396 589.002 193.97 588.059 192.115C587.124 190.26 586.656 188.047 586.656 185.477C586.656 182.899 587.128 180.686 588.071 178.839C589.014 176.985 590.303 175.562 591.938 174.572C593.573 173.573 595.432 173.074 597.515 173.074C598.796 173.074 599.99 173.259 601.099 173.628C602.215 173.99 603.217 174.524 604.105 175.232C604.993 175.931 605.728 176.788 606.31 177.802C606.891 178.808 607.284 179.959 607.489 181.256ZM631.494 185.477C631.494 188.055 631.022 190.272 630.079 192.127C629.136 193.974 627.843 195.396 626.2 196.394C624.565 197.385 622.707 197.88 620.624 197.88C618.533 197.88 616.666 197.385 615.024 196.394C613.389 195.396 612.1 193.97 611.157 192.115C610.213 190.26 609.742 188.047 609.742 185.477C609.742 182.899 610.213 180.686 611.157 178.839C612.1 176.985 613.389 175.562 615.024 174.572C616.666 173.573 618.533 173.074 620.624 173.074C622.707 173.074 624.565 173.573 626.2 174.572C627.843 175.562 629.136 176.985 630.079 178.839C631.022 180.686 631.494 182.899 631.494 185.477ZM627.886 185.477C627.886 183.512 627.568 181.858 626.931 180.514C626.302 179.162 625.438 178.14 624.338 177.448C623.245 176.749 622.007 176.399 620.624 176.399C619.233 176.399 617.991 176.749 616.898 177.448C615.806 178.14 614.941 179.162 614.304 180.514C613.676 181.858 613.361 183.512 613.361 185.477C613.361 187.442 613.676 189.1 614.304 190.452C614.941 191.796 615.806 192.818 616.898 193.518C617.991 194.209 619.233 194.555 620.624 194.555C622.007 194.555 623.245 194.209 624.338 193.518C625.438 192.818 626.302 191.796 626.931 190.452C627.568 189.1 627.886 187.442 627.886 185.477ZM654.196 173.404V197.55H650.848L638.575 179.842H638.351V197.55H634.708V173.404H638.08L650.365 191.136H650.589V173.404H654.196ZM677.671 173.404V197.55H674.323L662.05 179.842H661.826V197.55H658.183V173.404H661.555L673.839 191.136H674.063V173.404H677.671ZM681.657 197.55V173.404H696.795V176.54H685.3V183.897H696.006V187.022H685.3V194.414H696.937V197.55H681.657ZM720.388 181.256H716.71C716.568 180.47 716.305 179.779 715.92 179.181C715.535 178.584 715.063 178.077 714.505 177.66C713.947 177.244 713.322 176.929 712.63 176.717C711.947 176.505 711.22 176.399 710.449 176.399C709.058 176.399 707.812 176.749 706.712 177.448C705.619 178.148 704.755 179.173 704.118 180.525C703.489 181.877 703.175 183.528 703.175 185.477C703.175 187.442 703.489 189.1 704.118 190.452C704.755 191.804 705.623 192.826 706.724 193.518C707.824 194.209 709.062 194.555 710.438 194.555C711.2 194.555 711.923 194.453 712.607 194.249C713.299 194.036 713.923 193.726 714.481 193.317C715.039 192.909 715.511 192.409 715.896 191.82C716.289 191.223 716.56 190.539 716.71 189.769L720.388 189.78C720.192 190.967 719.81 192.06 719.244 193.058C718.686 194.048 717.967 194.905 717.087 195.628C716.215 196.343 715.216 196.897 714.092 197.29C712.968 197.683 711.742 197.88 710.414 197.88C708.323 197.88 706.46 197.385 704.826 196.394C703.191 195.396 701.902 193.97 700.959 192.115C700.023 190.26 699.556 188.047 699.556 185.477C699.556 182.899 700.027 180.686 700.97 178.839C701.914 176.985 703.203 175.562 704.837 174.572C706.472 173.573 708.331 173.074 710.414 173.074C711.695 173.074 712.89 173.259 713.998 173.628C715.114 173.99 716.116 174.524 717.004 175.232C717.893 175.931 718.627 176.788 719.209 177.802C719.791 178.808 720.184 179.959 720.388 181.256ZM722.229 176.54V173.404H740.915V176.54H733.382V197.55H729.75V176.54H722.229ZM743.717 197.55V173.404H758.855V176.54H747.36V183.897H758.065V187.022H747.36V194.414H758.996V197.55H743.717ZM770.21 197.55H762.393V173.404H770.457C772.823 173.404 774.855 173.888 776.553 174.854C778.25 175.813 779.551 177.193 780.455 178.993C781.367 180.785 781.823 182.934 781.823 185.442C781.823 187.957 781.363 190.118 780.443 191.926C779.531 193.734 778.211 195.125 776.482 196.1C774.753 197.066 772.662 197.55 770.21 197.55ZM766.036 194.367H770.009C771.848 194.367 773.377 194.021 774.595 193.329C775.814 192.63 776.725 191.62 777.331 190.299C777.936 188.971 778.239 187.352 778.239 185.442C778.239 183.547 777.936 181.94 777.331 180.62C776.733 179.299 775.841 178.297 774.654 177.613C773.468 176.929 771.994 176.588 770.233 176.588H766.036V194.367Z" fill="white"/>
</svg>
